<svg xmlns="http://www.w3.org/2000/svg" viewBox="0 0 24 24" width="21px" height="21px"><defs><style>.a{fill:rgb(255,255,255);}</style></defs><title>insta</title><path fill="url(#instagram-gradient)" class="a" d="M24,12c0,2.4,0,4-.06,5A7.44,7.44,0,0,1,22,22a7.44,7.44,0,0,1-5,1.93C16,24,14.4,24,12,24s-4,0-5-.06A7.44,7.44,0,0,1,2,22,7.44,7.44,0,0,1,.06,17C0,16,0,14.4,0,12S0,8,.06,7A7.44,7.44,0,0,1,2,2,7.44,7.44,0,0,1,7,.06C8,0,9.6,0,12,0s4,0,5,.06A7.44,7.44,0,0,1,22,2a7.44,7.44,0,0,1,1.93,5C23.94,8,24,9.6,24,12ZM13.17,2.11h-4c-.35,0-.88,0-1.52.06A6.69,6.69,0,0,0,6,2.34a4.33,4.33,0,0,0-1.11.29,4.54,4.54,0,0,0-1.4.94A4.54,4.54,0,0,0,2.58,5a5.1,5.1,0,0,0-.29,1.11c-.06.41-.12,1-.18,1.64S2,8.84,2,9.25v5.62c0,.35,0,.88.06,1.52A6.69,6.69,0,0,0,2.28,18a9.75,9.75,0,0,0,.29,1.11,4.3,4.3,0,0,0,2.34,2.34A5.1,5.1,0,0,0,6,21.78c.47.06,1,.12,1.64.18S8.78,22,9.19,22h5.62c.35,0,.88,0,1.52-.06A6.69,6.69,0,0,0,18,21.78a4.33,4.33,0,0,0,1.11-.29,4.3,4.3,0,0,0,2.34-2.34A5.1,5.1,0,0,0,21.72,18c.06-.41.12-1,.18-1.64s.06-1.11.06-1.52V9.25c0-.35,0-.88-.06-1.52a11.72,11.72,0,0,0-.18-1.64A9.75,9.75,0,0,0,21.42,5a4.3,4.3,0,0,0-2.34-2.34A5.1,5.1,0,0,0,18,2.34c-.47-.06-1-.12-1.64-.18s-1.11-.06-1.52-.06Zm3.16,5.5A5.88,5.88,0,0,1,18.15,12a5.88,5.88,0,0,1-1.81,4.39,5.88,5.88,0,0,1-4.39,1.81,5.88,5.88,0,0,1-4.39-1.81A5.88,5.88,0,0,1,5.74,12,5.88,5.88,0,0,1,7.55,7.61,5.88,5.88,0,0,1,11.94,5.8,5.88,5.88,0,0,1,16.33,7.61Zm-1.52,7.2A4,4,0,0,0,12,8,3.84,3.84,0,0,0,9.19,9.19,4,4,0,0,0,12,16,3.81,3.81,0,0,0,14.81,14.81Zm4.57-10.3a1.37,1.37,0,0,1,.41,1,1.28,1.28,0,0,1-.41,1,1.37,1.37,0,0,1-1,.41,1.21,1.21,0,0,1-1-.41,1.37,1.37,0,0,1-.41-1,1.28,1.28,0,0,1,.41-1,1.37,1.37,0,0,1,1-.41A1.41,1.41,0,0,1,19.38,4.51Z"/></svg>