<svg xmlns="http://www.w3.org/2000/svg" xmlns:xlink="http://www.w3.org/1999/xlink" viewBox="0 0 23.9 23.77" width="22px" height="19px"><defs><style>.a{fill:none;}.b{clip-path:url(#a);}.c{fill:rgb(255,255,255);}</style><clipPath id="a" transform="translate(0.05 -0.06)"><rect class="a" width="24" height="24"/></clipPath></defs><title>telegram</title><g class="b"><path class="c" d="M19.23,23.83a.82.82,0,0,1-.52-.17l-6-4.54L9.43,21.67a1,1,0,0,1-.89.12.93.93,0,0,1-.58-.7L6.34,14.27.58,11.83a1.07,1.07,0,0,1-.63-1,1.09,1.09,0,0,1,.58-1l22-9.73a.61.61,0,0,1,.31-.06H23a1,1,0,0,1,.63.29l.05.06a.94.94,0,0,1,.21.64v.29L20.12,23a.93.93,0,0,1-.58.76c-.05.06-.16.06-.31.06Zm-6-6.87,5.34,4L21.43,4.14,11,15.32,13.21,17Zm-4.45-.87.73,3,1.57-1.22L9,16.37c-.1-.12-.21-.17-.26-.29ZM3.51,10.83l4,1.69a1.05,1.05,0,0,1,.58.7l.52,2.1a1,1,0,0,1,.26-.64L18.81,4Z" transform="translate(0.05 -0.06)"/></g></svg>