<svg xmlns="http://www.w3.org/2000/svg" viewBox="0 0 24 19.51" width="20px" height="17px"><defs><style>.a{isolation:isolate;}.b{fill:rgb(255,255,255);}</style></defs><title>twitter</title><g class="a"><path class="b" d="M24,4.73a10.46,10.46,0,0,1-2.45,2.56v.63a14,14,0,0,1-.57,4,15.32,15.32,0,0,1-1.76,3.81,15,15,0,0,1-2.79,3.18,13.08,13.08,0,0,1-3.92,2.22A14.13,14.13,0,0,1,7.56,22,13.68,13.68,0,0,1,0,19.75a7.63,7.63,0,0,0,1.19.06,9.43,9.43,0,0,0,6.09-2.1,4.52,4.52,0,0,1-2.84-1,4.8,4.8,0,0,1-1.76-2.45,5.2,5.2,0,0,0,.91.06,5.16,5.16,0,0,0,1.31-.17A4.79,4.79,0,0,1,2,12.47,4.81,4.81,0,0,1,.91,9.34V9.28a5,5,0,0,0,2.22.63A4.76,4.76,0,0,1,1.54,8.15,4.72,4.72,0,0,1,1,5.81a4.87,4.87,0,0,1,.68-2.5A13.94,13.94,0,0,0,6.14,7a13.88,13.88,0,0,0,5.69,1.54,7.71,7.71,0,0,1-.11-1.14,4.68,4.68,0,0,1,1.42-3.47,4.68,4.68,0,0,1,3.47-1.42A4.73,4.73,0,0,1,20.19,4,10.47,10.47,0,0,0,23.32,2.8a4.9,4.9,0,0,1-2.16,2.73A14.29,14.29,0,0,0,24,4.73Z" transform="translate(0 -2.46)"/></g></svg>