<svg xmlns="http://www.w3.org/2000/svg" viewBox="0 0 23.92 13.48" width="20px" height="15px"><defs><style>.a{isolation:isolate;}.b{fill:rgb(255,255,255);}</style></defs><title>vk</title><g class="a"><path class="b" d="M24,6.41c.19.51-.42,1.76-1.86,3.66-.19.28-.46.6-.79,1.07s-.56.74-.7.88a6.87,6.87,0,0,0-.37.6c-.14.23-.19.42-.14.51a2.16,2.16,0,0,1,.14.42,1.46,1.46,0,0,0,.42.56c.19.19.42.42.7.65a0,0,0,0,1,0,0,12.28,12.28,0,0,1,2.37,2.74s0,.09.09.14,0,.19.09.32a.64.64,0,0,1,0,.42.55.55,0,0,1-.32.32,1.63,1.63,0,0,1-.74.14l-3.2,0a1.87,1.87,0,0,1-.7,0,4.52,4.52,0,0,1-.65-.28l-.23-.14a6,6,0,0,1-.88-.79l-.83-1c-.23-.28-.51-.51-.74-.74a.62.62,0,0,0-.7-.19s0,0-.09,0-.09.09-.23.19a2.57,2.57,0,0,0-.28.37,3.33,3.33,0,0,0-.23.65A3.16,3.16,0,0,0,14,18a.69.69,0,0,1,0,.32c0,.09,0,.19-.09.23l0,0a1.2,1.2,0,0,1-.65.28H11.77A6,6,0,0,1,10,18.71a7.41,7.41,0,0,1-1.62-.65c-.46-.28-.88-.56-1.3-.83a9.79,9.79,0,0,1-.88-.7l-.32-.28a3,3,0,0,1-.32-.37c-.14-.19-.46-.56-.88-1.11s-.88-1.21-1.3-1.86-.93-1.53-1.53-2.64S.68,8,.17,6.88a1.18,1.18,0,0,1-.09-.32c0-.09,0-.14,0-.19l0-.09A1,1,0,0,1,.86,6L4.25,6a.66.66,0,0,1,.28.09c.09,0,.14.09.19.09l0,0A.68.68,0,0,1,5,6.65c.19.42.37.83.56,1.3s.37.79.51,1l.19.37a11,11,0,0,0,.7,1.3,4.91,4.91,0,0,0,.6.83,4.19,4.19,0,0,0,.51.46,1,1,0,0,0,.42.19.79.79,0,0,0,.32,0l0,0A1.37,1.37,0,0,0,9,11.75a1.54,1.54,0,0,0,.19-.6c0-.23.09-.56.14-1a8.37,8.37,0,0,0,0-1.53,5.71,5.71,0,0,0-.09-.93,1.09,1.09,0,0,0-.19-.56L9,7a1.57,1.57,0,0,0-1.07-.56c-.09,0-.09-.09,0-.28a1.82,1.82,0,0,1,.46-.37,7.28,7.28,0,0,1,3-.28,8,8,0,0,1,1.67.14.87.87,0,0,1,.42.19,1.23,1.23,0,0,1,.23.28l.14.42a1.91,1.91,0,0,1,0,.56v.7a6.57,6.57,0,0,1,0,.88v2.13a2.08,2.08,0,0,0,0,.51,2.88,2.88,0,0,0,.14.46,2,2,0,0,0,.28.32,2,2,0,0,0,.23,0,.62.62,0,0,0,.32-.14,3.38,3.38,0,0,0,.46-.42,9,9,0,0,0,.65-.83,11.36,11.36,0,0,0,.83-1.35A25.73,25.73,0,0,0,18.17,6.6c0-.09.09-.14.14-.23s.09-.09.14-.14l0,0a0,0,0,0,0,0,0s.09,0,.14,0h.23l3.57,0a1.42,1.42,0,0,1,.79,0,2.58,2.58,0,0,1,.37.19Z" transform="translate(-0.08 -5.47)"/></g></svg>